<svg height="140" viewBox="0 0 740 1008" fill="none" xmlns="http://www.w3.org/2000/svg">
<path d="M229.412 973H221.456V901.09H227.117L228.341 911.035C231.707 907.669 235.328 905.017 239.204 903.079C243.08 901.039 247.721 900.019 253.127 900.019C258.227 900.019 262.409 901.09 265.673 903.232C268.937 905.272 271.385 908.128 273.017 911.8C276.587 908.026 280.514 905.119 284.798 903.079C289.082 901.039 293.825 900.019 299.027 900.019C306.371 900.019 311.879 902.11 315.551 906.292C319.325 910.372 321.212 916.084 321.212 923.428V973H313.256V925.876C313.256 919.756 311.93 915.013 309.278 911.647C306.728 908.281 302.087 906.598 295.355 906.598C291.887 906.598 288.266 907.567 284.492 909.505C280.82 911.443 277.709 914.044 275.159 917.308C275.261 918.226 275.312 919.246 275.312 920.368C275.312 921.49 275.312 922.51 275.312 923.428V973H267.356V925.876C267.356 919.756 266.132 915.013 263.684 911.647C261.236 908.281 256.697 906.598 250.067 906.598C246.293 906.598 242.57 907.618 238.898 909.658C235.328 911.596 232.166 914.299 229.412 917.767V973ZM398.739 937.045H347.484V939.187C347.484 948.163 349.881 955.201 354.675 960.301C359.571 965.299 366.201 967.798 374.565 967.798C381.195 967.798 387.417 966.676 393.231 964.432L395.067 970.552C392.415 971.674 389.202 972.541 385.428 973.153C381.756 973.867 377.982 974.224 374.106 974.224C369.312 974.224 364.773 973.51 360.489 972.082C356.307 970.654 352.635 968.461 349.473 965.503C346.311 962.443 343.812 958.618 341.976 954.028C340.14 949.336 339.222 943.726 339.222 937.198C339.222 931.588 339.987 926.488 341.517 921.898C343.047 917.308 345.24 913.432 348.096 910.27C350.952 907.006 354.318 904.507 358.194 902.773C362.07 901.039 366.405 900.172 371.199 900.172C375.279 900.172 379.002 900.937 382.368 902.467C385.836 903.895 388.743 905.986 391.089 908.74C393.537 911.494 395.424 914.809 396.75 918.685C398.076 922.561 398.739 926.845 398.739 931.537V937.045ZM390.477 930.619C390.477 927.661 390.12 924.754 389.406 921.898C388.692 918.94 387.519 916.339 385.887 914.095C384.357 911.851 382.317 910.066 379.767 908.74C377.319 907.312 374.31 906.598 370.74 906.598C364.518 906.598 359.316 908.689 355.134 912.871C351.054 917.053 348.606 922.969 347.79 930.619H390.477ZM453.307 907.21H429.133V954.334C429.133 959.128 430.204 962.392 432.346 964.126C434.488 965.758 437.446 966.574 441.22 966.574C444.178 966.574 446.932 966.319 449.482 965.809C452.032 965.197 454.174 964.585 455.908 963.973L457.132 969.94C455.092 970.756 452.593 971.47 449.635 972.082C446.677 972.694 443.413 973 439.843 973C433.723 973 429.082 971.572 425.92 968.716C422.758 965.758 421.177 961.321 421.177 955.405V907.21H408.172V901.09H421.177V878.14H429.133V901.09H453.307V907.21ZM469.892 907.363C474.686 904.813 479.072 902.977 483.05 901.855C487.13 900.733 491.465 900.172 496.055 900.172C499.319 900.172 502.379 900.631 505.235 901.549C508.193 902.467 510.743 903.946 512.885 905.986C515.129 908.026 516.863 910.729 518.087 914.095C519.413 917.359 520.076 921.388 520.076 926.182V973H514.568L512.885 963.514H512.579C509.621 967.084 506.153 969.787 502.175 971.623C498.197 973.357 493.76 974.224 488.864 974.224C485.498 974.224 482.387 973.765 479.531 972.847C476.675 971.827 474.176 970.399 472.034 968.563C469.994 966.727 468.362 964.534 467.138 961.984C466.016 959.332 465.455 956.425 465.455 953.263C465.455 949.489 466.22 946.174 467.75 943.318C469.28 940.462 471.422 938.116 474.176 936.28C476.93 934.342 480.194 932.914 483.968 931.996C487.844 931.078 492.128 930.619 496.82 930.619H512.12V925.876C512.12 918.94 510.59 913.993 507.53 911.035C504.47 908.077 500.492 906.598 495.596 906.598C492.638 906.598 489.221 907.057 485.345 907.975C481.469 908.893 477.338 910.576 472.952 913.024L469.892 907.363ZM512.12 936.892L499.421 937.045C494.831 937.147 490.904 937.657 487.64 938.575C484.376 939.391 481.673 940.513 479.531 941.941C477.491 943.267 476.012 944.899 475.094 946.837C474.176 948.673 473.717 950.662 473.717 952.804C473.717 955.456 474.176 957.751 475.094 959.689C476.012 961.525 477.236 963.055 478.766 964.279C480.296 965.503 482.081 966.421 484.121 967.033C486.263 967.543 488.507 967.798 490.853 967.798C492.689 967.798 494.576 967.594 496.514 967.186C498.452 966.676 500.339 965.962 502.175 965.044C504.113 964.024 505.949 962.8 507.683 961.372C509.417 959.842 510.896 958.006 512.12 955.864V936.892Z" fill="#777"/>
<path d="M0 370C0 70 173 0 370 0C567 0 740 70 740 370C740 670 567 740 370 740C173 740 0 670 0 370Z" fill="#FAFA00"/>
<path d="M413.6 545.2C412.2 538.2 411.267 532.367 410.8 527.7C410.8 522.567 410.567 516.733 410.1 510.2C394.233 526.067 377.2 537.733 359 545.2C341.267 552.667 322.833 556.4 303.7 556.4C271.967 556.4 247.467 547.767 230.2 530.5C213.4 513.233 205 492 205 466.8C205 444.4 211.067 425.5 223.2 410.1C235.333 394.233 251.2 381.4 270.8 371.6C290.4 361.333 312.1 353.633 335.9 348.5C359.7 342.9 383.267 339.867 406.6 339.4V300.9C406.6 287.367 404.967 275 401.7 263.8C398.9 252.133 393.533 243.033 385.6 236.5C377.667 229.5 366 226 350.6 226C340.333 226.467 329.833 228.8 319.1 233C308.833 236.733 300.667 242.8 294.6 251.2C298.333 255.4 300.667 260.067 301.6 265.2C302.533 269.867 303 274.067 303 277.8C303 286.2 299.733 295.067 293.2 304.4C286.667 313.267 276.167 317.467 261.7 317C249.1 316.533 239.3 312.1 232.3 303.7C225.767 295.3 222.5 285.267 222.5 273.6C222.5 255.867 228.8 240.467 241.4 227.4C254.467 213.867 271.967 203.367 293.9 195.9C315.833 187.967 340.333 184 367.4 184C407.533 184 438.333 194.5 459.8 215.5C481.267 236.5 491.767 270.1 491.3 316.3C491.3 332.633 491.3 347.567 491.3 361.1C491.3 374.167 491.067 387.467 490.6 401C490.6 414.067 490.6 428.767 490.6 445.1C490.6 452.1 490.367 460.967 489.9 471.7C489.433 481.967 488.733 492.233 487.8 502.5C496.2 501.567 504.6 501.1 513 501.1C521.867 500.633 529.1 500.167 534.7 499.7V545.2H413.6ZM405.9 380.7C391.9 381.633 378.133 383.967 364.6 387.7C351.067 390.967 338.933 395.633 328.2 401.7C317.467 407.767 308.833 415.467 302.3 424.8C296.233 433.667 293.433 443.933 293.9 455.6C294.367 470.067 299.033 480.8 307.9 487.8C316.767 494.333 327.033 497.6 338.7 497.6C352.233 497.6 364.367 494.8 375.1 489.2C386.3 483.6 396.567 476.133 405.9 466.8C405.9 462.133 405.9 457.233 405.9 452.1C405.9 446.967 405.9 441.833 405.9 436.7C405.9 430.167 405.9 422 405.9 412.2C405.9 402.4 405.9 391.9 405.9 380.7Z" fill="white"/>
</svg>
