<svg height="140" viewBox="0 0 740 1008" fill="none" xmlns="http://www.w3.org/2000/svg">
<path d="M229.412 973H221.456V901.09H227.117L228.341 911.035C231.707 907.669 235.328 905.017 239.204 903.079C243.08 901.039 247.721 900.019 253.127 900.019C258.227 900.019 262.409 901.09 265.673 903.232C268.937 905.272 271.385 908.128 273.017 911.8C276.587 908.026 280.514 905.119 284.798 903.079C289.082 901.039 293.825 900.019 299.027 900.019C306.371 900.019 311.879 902.11 315.551 906.292C319.325 910.372 321.212 916.084 321.212 923.428V973H313.256V925.876C313.256 919.756 311.93 915.013 309.278 911.647C306.728 908.281 302.087 906.598 295.355 906.598C291.887 906.598 288.266 907.567 284.492 909.505C280.82 911.443 277.709 914.044 275.159 917.308C275.261 918.226 275.312 919.246 275.312 920.368C275.312 921.49 275.312 922.51 275.312 923.428V973H267.356V925.876C267.356 919.756 266.132 915.013 263.684 911.647C261.236 908.281 256.697 906.598 250.067 906.598C246.293 906.598 242.57 907.618 238.898 909.658C235.328 911.596 232.166 914.299 229.412 917.767V973ZM398.739 937.045H347.484V939.187C347.484 948.163 349.881 955.201 354.675 960.301C359.571 965.299 366.201 967.798 374.565 967.798C381.195 967.798 387.417 966.676 393.231 964.432L395.067 970.552C392.415 971.674 389.202 972.541 385.428 973.153C381.756 973.867 377.982 974.224 374.106 974.224C369.312 974.224 364.773 973.51 360.489 972.082C356.307 970.654 352.635 968.461 349.473 965.503C346.311 962.443 343.812 958.618 341.976 954.028C340.14 949.336 339.222 943.726 339.222 937.198C339.222 931.588 339.987 926.488 341.517 921.898C343.047 917.308 345.24 913.432 348.096 910.27C350.952 907.006 354.318 904.507 358.194 902.773C362.07 901.039 366.405 900.172 371.199 900.172C375.279 900.172 379.002 900.937 382.368 902.467C385.836 903.895 388.743 905.986 391.089 908.74C393.537 911.494 395.424 914.809 396.75 918.685C398.076 922.561 398.739 926.845 398.739 931.537V937.045ZM390.477 930.619C390.477 927.661 390.12 924.754 389.406 921.898C388.692 918.94 387.519 916.339 385.887 914.095C384.357 911.851 382.317 910.066 379.767 908.74C377.319 907.312 374.31 906.598 370.74 906.598C364.518 906.598 359.316 908.689 355.134 912.871C351.054 917.053 348.606 922.969 347.79 930.619H390.477ZM453.307 907.21H429.133V954.334C429.133 959.128 430.204 962.392 432.346 964.126C434.488 965.758 437.446 966.574 441.22 966.574C444.178 966.574 446.932 966.319 449.482 965.809C452.032 965.197 454.174 964.585 455.908 963.973L457.132 969.94C455.092 970.756 452.593 971.47 449.635 972.082C446.677 972.694 443.413 973 439.843 973C433.723 973 429.082 971.572 425.92 968.716C422.758 965.758 421.177 961.321 421.177 955.405V907.21H408.172V901.09H421.177V878.14H429.133V901.09H453.307V907.21ZM469.892 907.363C474.686 904.813 479.072 902.977 483.05 901.855C487.13 900.733 491.465 900.172 496.055 900.172C499.319 900.172 502.379 900.631 505.235 901.549C508.193 902.467 510.743 903.946 512.885 905.986C515.129 908.026 516.863 910.729 518.087 914.095C519.413 917.359 520.076 921.388 520.076 926.182V973H514.568L512.885 963.514H512.579C509.621 967.084 506.153 969.787 502.175 971.623C498.197 973.357 493.76 974.224 488.864 974.224C485.498 974.224 482.387 973.765 479.531 972.847C476.675 971.827 474.176 970.399 472.034 968.563C469.994 966.727 468.362 964.534 467.138 961.984C466.016 959.332 465.455 956.425 465.455 953.263C465.455 949.489 466.22 946.174 467.75 943.318C469.28 940.462 471.422 938.116 474.176 936.28C476.93 934.342 480.194 932.914 483.968 931.996C487.844 931.078 492.128 930.619 496.82 930.619H512.12V925.876C512.12 918.94 510.59 913.993 507.53 911.035C504.47 908.077 500.492 906.598 495.596 906.598C492.638 906.598 489.221 907.057 485.345 907.975C481.469 908.893 477.338 910.576 472.952 913.024L469.892 907.363ZM512.12 936.892L499.421 937.045C494.831 937.147 490.904 937.657 487.64 938.575C484.376 939.391 481.673 940.513 479.531 941.941C477.491 943.267 476.012 944.899 475.094 946.837C474.176 948.673 473.717 950.662 473.717 952.804C473.717 955.456 474.176 957.751 475.094 959.689C476.012 961.525 477.236 963.055 478.766 964.279C480.296 965.503 482.081 966.421 484.121 967.033C486.263 967.543 488.507 967.798 490.853 967.798C492.689 967.798 494.576 967.594 496.514 967.186C498.452 966.676 500.339 965.962 502.175 965.044C504.113 964.024 505.949 962.8 507.683 961.372C509.417 959.842 510.896 958.006 512.12 955.864V936.892Z" fill="#777"/>
<path d="M0 370C0 70 173 0 370 0C567 0 740 70 740 370C740 670 567 740 370 740C173 740 0 670 0 370Z" fill="#FAFA00"/>
<path d="M446.379 493.768V303.387C446.379 288.803 443.417 276.157 437.492 265.447C431.796 254.51 423.137 246.079 411.516 240.154C399.895 234.23 385.539 231.268 368.449 231.268C352.499 231.268 338.485 234.002 326.408 239.471C314.559 244.939 305.217 252.117 298.381 261.004C291.773 269.891 288.469 279.461 288.469 289.715H225.236C225.236 276.499 228.654 263.396 235.49 250.408C242.326 237.42 252.124 225.685 264.885 215.203C277.873 204.493 293.368 196.062 311.369 189.91C329.598 183.53 349.878 180.34 372.209 180.34C399.097 180.34 422.795 184.897 443.303 194.012C464.038 203.126 480.217 216.912 491.838 235.369C503.687 253.598 509.611 276.499 509.611 304.07V476.336C509.611 488.641 510.637 501.743 512.688 515.643C514.966 529.542 518.27 541.505 522.6 551.531L525 557H456.633C453.443 549.708 450.936 540.024 449.113 527.947C447.29 515.643 446.379 504.249 446.379 493.768ZM457.316 332.781L458 377.215H394.084C376.083 377.215 360.018 378.696 345.891 381.658C331.763 384.393 319.914 388.608 310.344 394.305C300.773 400.001 293.482 407.179 288.469 415.838C283.456 424.269 280.949 434.181 280.949 445.574C280.949 457.195 283.57 467.791 288.811 477.361C294.051 486.932 301.913 494.565 312.395 500.262C323.104 505.73 336.206 508.465 351.701 508.465C371.07 508.465 388.16 504.363 402.971 496.16C417.782 487.957 429.517 477.931 438.176 466.082C447.062 454.233 451.848 442.726 452.531 431.561L479.533 461.98C477.938 471.551 473.609 482.146 466.545 493.768C459.481 505.389 450.025 516.554 438.176 527.264C426.555 537.745 412.655 546.518 396.477 553.582C380.526 560.418 362.525 563.836 342.473 563.836C317.408 563.836 295.419 558.937 276.506 549.139C257.821 539.34 243.238 526.238 232.756 509.832C222.502 493.198 217.375 474.627 217.375 454.119C217.375 434.295 221.249 416.863 228.996 401.824C236.743 386.557 247.909 373.911 262.492 363.885C277.076 353.631 294.621 345.883 315.129 340.643C335.637 335.402 358.537 332.781 383.83 332.781H457.316Z" fill="white"/>
</svg>
